<svg width="111" height="24" viewBox="0 0 111 24" fill="none" xmlns="http://www.w3.org/2000/svg">
<path fill-rule="evenodd" clip-rule="evenodd" d="M0.478516 23.5562L10.7367 0.21875L19.4561 20.0552V0.517721H25.5346C28.0422 0.517721 30.2472 1.04066 32.0459 2.20138C33.0129 2.816 33.7259 3.61443 34.2071 4.55625V0.517721L63.6004 0.517779V6.25931H56.3258V8.70025H61.973V14.4961H56.3258V17.807H62.7927L66.3682 0.517779H68.891L74.8265 12.183L75.0697 12.7223L75.3105 12.1887L81.1312 0.517779H83.6254L88.5821 23.5757H82.445L80.5778 14.9209L76.0864 23.5757H74.0507L69.5134 14.7832L67.7703 23.5757H50.2309V6.25925H45.4127V23.5756H39.3178V6.25925H34.8001C34.9238 6.84605 34.9839 7.46792 34.9839 8.11855C34.9839 9.70986 34.6045 11.1694 33.7867 12.4323C33.2785 13.2236 32.6218 13.8822 31.8414 14.4175L37.1483 23.5756H30.0474L26.0422 16.0524C25.8555 16.0577 25.6736 16.062 25.4966 16.0653V23.5756H19.4561V23.5562H0.478516ZM10.1219 20.7058C10.1219 20.9329 10.0581 21.1601 9.93055 21.3166H9.3876C9.19675 21.3166 9.00852 21.3607 8.83781 21.4455L8.6876 21.5202H8.14546C7.9779 21.5202 7.82722 21.6215 7.76499 21.7761L7.16084 23.2769C7.15116 23.301 7.14619 23.3267 7.14619 23.3526C7.14619 23.465 7.23792 23.5562 7.35108 23.5562H14.122C14.1481 23.5562 14.1739 23.5512 14.1981 23.5416C14.3032 23.4998 14.3543 23.3813 14.3122 23.2769L13.7081 21.7761C13.6459 21.6215 13.4952 21.5202 13.3276 21.5202H12.7855L12.6347 21.4453C12.4644 21.3606 12.2766 21.3166 12.0862 21.3166H11.4474C11.3833 21.1807 11.3512 21.0196 11.3512 20.8585C11.3512 20.7007 11.382 20.5735 11.4197 20.4177C11.4792 20.1713 11.5561 19.8533 11.5561 19.2297C11.5561 18.8934 11.494 18.6806 11.4382 18.4893C11.3926 18.333 11.3512 18.1911 11.3512 18.0081C11.3512 17.9336 11.3924 17.7772 11.4446 17.579C11.535 17.2356 11.6586 16.7665 11.6586 16.3793C11.6586 15.9631 11.6229 15.6414 11.5515 15.4143C11.9644 15.0505 12.1708 14.2354 12.1708 12.969C12.1708 12.7654 12.1708 12.3582 11.5561 12.1546C11.2266 12.0455 11.1326 11.9363 11.0532 11.733C11.2318 11.5906 11.3512 11.3312 11.3512 11.0349C11.3512 10.5851 11.076 10.2205 10.7365 10.2205C10.3971 10.2205 10.1219 10.5851 10.1219 11.0349C10.1219 11.3312 10.2413 11.5906 10.4199 11.733C10.3405 11.9363 10.2465 12.0455 9.91696 12.1546C9.30228 12.3582 9.30228 12.7654 9.30228 12.969C9.30228 14.2013 9.49774 15.0062 9.88864 15.3839C9.83923 15.5994 9.81452 15.8802 9.81452 16.2266C9.81452 16.6138 9.93804 17.0829 10.0285 17.4263C10.0807 17.6245 10.1219 17.7809 10.1219 17.8554C10.1219 18.0384 10.0805 18.1803 10.0349 18.3366C9.97906 18.5279 9.91696 18.7407 9.91696 19.077C9.91696 19.7006 9.99385 20.0186 10.0534 20.265C10.0911 20.4208 10.1219 20.548 10.1219 20.7058ZM25.8879 10.5216H25.4965V6.12336H25.7792C27.2174 6.12336 28.0157 6.40035 28.425 6.70674C28.7505 6.95044 28.9977 7.33526 28.9977 8.14576C28.9977 8.86279 28.7842 9.42681 28.3642 9.91493L28.3623 9.91717C28.163 10.1497 27.5413 10.5216 25.8879 10.5216Z" fill="black"/>
<path fill-rule="evenodd" clip-rule="evenodd" d="M0.478516 23.5562L10.7367 0.21875L19.4561 20.0552V0.517721H25.5346C28.0422 0.517721 30.2472 1.04066 32.0459 2.20138C33.0129 2.816 33.7259 3.61443 34.2071 4.55625V0.517721L63.6004 0.517779V6.25931H56.3258V8.70025H61.973V14.4961H56.3258V17.807H62.7927L66.3682 0.517779H68.891L74.8265 12.183L75.0697 12.7223L75.3105 12.1887L81.1312 0.517779H83.6254L88.5821 23.5757H82.445L80.5778 14.9209L76.0864 23.5757H74.0507L69.5134 14.7832L67.7703 23.5757H50.2309V6.25925H45.4127V23.5756H39.3178V6.25925H34.8001C34.9238 6.84605 34.9839 7.46792 34.9839 8.11855C34.9839 9.70986 34.6045 11.1694 33.7867 12.4323C33.2785 13.2236 32.6218 13.8822 31.8414 14.4175L37.1483 23.5756H30.0474L26.0422 16.0524C25.8555 16.0577 25.6736 16.062 25.4966 16.0653V23.5756H19.4561V23.5562H0.478516ZM10.1219 20.7058C10.1219 20.9329 10.0581 21.1601 9.93055 21.3166H9.3876C9.19675 21.3166 9.00852 21.3607 8.83781 21.4455L8.6876 21.5202H8.14546C7.9779 21.5202 7.82722 21.6215 7.76499 21.7761L7.16084 23.2769C7.15116 23.301 7.14619 23.3267 7.14619 23.3526C7.14619 23.465 7.23792 23.5562 7.35108 23.5562H14.122C14.1481 23.5562 14.1739 23.5512 14.1981 23.5416C14.3032 23.4998 14.3543 23.3813 14.3122 23.2769L13.7081 21.7761C13.6459 21.6215 13.4952 21.5202 13.3276 21.5202H12.7855L12.6347 21.4453C12.4644 21.3606 12.2766 21.3166 12.0862 21.3166H11.4474C11.3833 21.1807 11.3512 21.0196 11.3512 20.8585C11.3512 20.7007 11.382 20.5735 11.4197 20.4177C11.4792 20.1713 11.5561 19.8533 11.5561 19.2297C11.5561 18.8934 11.494 18.6806 11.4382 18.4893C11.3926 18.333 11.3512 18.1911 11.3512 18.0081C11.3512 17.9336 11.3924 17.7772 11.4446 17.579C11.535 17.2356 11.6586 16.7665 11.6586 16.3793C11.6586 15.9631 11.6229 15.6414 11.5515 15.4143C11.9644 15.0505 12.1708 14.2354 12.1708 12.969C12.1708 12.7654 12.1708 12.3582 11.5561 12.1546C11.2266 12.0455 11.1326 11.9363 11.0532 11.733C11.2318 11.5906 11.3512 11.3312 11.3512 11.0349C11.3512 10.5851 11.076 10.2205 10.7365 10.2205C10.3971 10.2205 10.1219 10.5851 10.1219 11.0349C10.1219 11.3312 10.2413 11.5906 10.4199 11.733C10.3405 11.9363 10.2465 12.0455 9.91696 12.1546C9.30228 12.3582 9.30228 12.7654 9.30228 12.969C9.30228 14.2013 9.49774 15.0062 9.88864 15.3839C9.83923 15.5994 9.81452 15.8802 9.81452 16.2266C9.81452 16.6138 9.93804 17.0829 10.0285 17.4263C10.0807 17.6245 10.1219 17.7809 10.1219 17.8554C10.1219 18.0384 10.0805 18.1803 10.0349 18.3366C9.97906 18.5279 9.91696 18.7407 9.91696 19.077C9.91696 19.7006 9.99385 20.0186 10.0534 20.265C10.0911 20.4208 10.1219 20.548 10.1219 20.7058ZM25.8879 10.5216H25.4965V6.12336H25.7792C27.2174 6.12336 28.0157 6.40035 28.425 6.70674C28.7505 6.95044 28.9977 7.33526 28.9977 8.14576C28.9977 8.86279 28.7842 9.42681 28.3642 9.91493L28.3623 9.91717C28.163 10.1497 27.5413 10.5216 25.8879 10.5216Z" fill="url(#paint0_linear)"/>
<path d="M88.723 0.517779H94.8451V23.5757H88.723V0.517779Z" fill="black"/>
<path d="M88.723 0.517779H94.8451V23.5757H88.723V0.517779Z" fill="url(#paint1_linear)"/>
<path d="M95.5896 20.7261L98.5391 15.4393L99.973 16.7367C100.19 16.9326 100.618 17.216 101.351 17.5672C102.001 17.8535 102.561 17.9701 103.046 17.9701C103.765 17.9701 104.19 17.8026 104.454 17.6027L104.463 17.5961L104.472 17.5895C104.674 17.4406 104.769 17.286 104.769 16.9535C104.769 16.6249 104.688 16.4128 104.57 16.2487C104.361 15.9591 104.112 15.728 103.816 15.5456L103.798 15.5345L103.78 15.523C103.382 15.2628 102.774 14.9226 101.927 14.4993C100.9 13.9944 100.111 13.5751 99.6367 13.2591L99.6336 13.2571C97.4573 11.7987 96.3146 9.69234 96.3146 7.08561C96.3146 4.99222 97.0294 3.19571 98.6033 1.94346C100.066 0.761343 101.866 0.21875 103.888 0.21875C106.07 0.21875 108.011 0.852224 109.621 2.17118L110.635 3.00245L107.502 8.38214L106.089 6.89493C105.943 6.74073 105.665 6.53937 105.165 6.33954L105.14 6.32954L105.116 6.31868C104.705 6.13742 104.256 6.04183 103.752 6.04183C103.072 6.04183 102.733 6.19772 102.561 6.33393L102.555 6.33828C102.506 6.37695 102.382 6.47442 102.382 6.9225C102.382 7.15904 102.443 7.34869 102.574 7.53451C102.784 7.81128 103.054 8.06752 103.4 8.2995C103.866 8.59865 104.509 8.97657 105.34 9.43623L105.342 9.43757C106.154 9.8887 106.8 10.2621 107.267 10.5532C107.795 10.8635 108.286 11.2353 108.739 11.6643C109.405 12.2657 109.942 12.979 110.348 13.7916C110.788 14.6721 111 15.6258 111 16.6273C111 18.0803 110.662 19.4179 109.909 20.5634C109.195 21.679 108.196 22.5117 106.965 23.0601C105.775 23.598 104.458 23.8475 103.046 23.8475C101.775 23.8475 100.522 23.6245 99.2946 23.1876C98.1413 22.7771 97.1203 22.2568 96.4119 21.5483L95.5896 20.7261Z" fill="black"/>
<path d="M95.5896 20.7261L98.5391 15.4393L99.973 16.7367C100.19 16.9326 100.618 17.216 101.351 17.5672C102.001 17.8535 102.561 17.9701 103.046 17.9701C103.765 17.9701 104.19 17.8026 104.454 17.6027L104.463 17.5961L104.472 17.5895C104.674 17.4406 104.769 17.286 104.769 16.9535C104.769 16.6249 104.688 16.4128 104.57 16.2487C104.361 15.9591 104.112 15.728 103.816 15.5456L103.798 15.5345L103.78 15.523C103.382 15.2628 102.774 14.9226 101.927 14.4993C100.9 13.9944 100.111 13.5751 99.6367 13.2591L99.6336 13.2571C97.4573 11.7987 96.3146 9.69234 96.3146 7.08561C96.3146 4.99222 97.0294 3.19571 98.6033 1.94346C100.066 0.761343 101.866 0.21875 103.888 0.21875C106.07 0.21875 108.011 0.852224 109.621 2.17118L110.635 3.00245L107.502 8.38214L106.089 6.89493C105.943 6.74073 105.665 6.53937 105.165 6.33954L105.14 6.32954L105.116 6.31868C104.705 6.13742 104.256 6.04183 103.752 6.04183C103.072 6.04183 102.733 6.19772 102.561 6.33393L102.555 6.33828C102.506 6.37695 102.382 6.47442 102.382 6.9225C102.382 7.15904 102.443 7.34869 102.574 7.53451C102.784 7.81128 103.054 8.06752 103.4 8.2995C103.866 8.59865 104.509 8.97657 105.34 9.43623L105.342 9.43757C106.154 9.8887 106.8 10.2621 107.267 10.5532C107.795 10.8635 108.286 11.2353 108.739 11.6643C109.405 12.2657 109.942 12.979 110.348 13.7916C110.788 14.6721 111 15.6258 111 16.6273C111 18.0803 110.662 19.4179 109.909 20.5634C109.195 21.679 108.196 22.5117 106.965 23.0601C105.775 23.598 104.458 23.8475 103.046 23.8475C101.775 23.8475 100.522 23.6245 99.2946 23.1876C98.1413 22.7771 97.1203 22.2568 96.4119 21.5483L95.5896 20.7261Z" fill="url(#paint2_linear)"/>
<defs>
<linearGradient id="paint0_linear" x1="25.6951" y1="26.3578" x2="28.2779" y2="-1.94814" gradientUnits="userSpaceOnUse">
<stop stop-color="#AC7634"/>
<stop offset="1" stop-color="#DBA666"/>
</linearGradient>
<linearGradient id="paint1_linear" x1="25.6951" y1="26.3578" x2="28.2779" y2="-1.94814" gradientUnits="userSpaceOnUse">
<stop stop-color="#AC7634"/>
<stop offset="1" stop-color="#DBA666"/>
</linearGradient>
<linearGradient id="paint2_linear" x1="25.6951" y1="26.3578" x2="28.2779" y2="-1.94814" gradientUnits="userSpaceOnUse">
<stop stop-color="#AC7634"/>
<stop offset="1" stop-color="#DBA666"/>
</linearGradient>
</defs>
</svg>
