<svg width="29" height="32" viewBox="0 0 29 32" fill="none" xmlns="http://www.w3.org/2000/svg">
<path fill-rule="evenodd" clip-rule="evenodd" d="M0.5 31.85L14.5 0L28.5 31.85H19.1347C19.1652 31.8484 19.1953 31.8418 19.2238 31.8305C19.3671 31.7735 19.4369 31.6118 19.3795 31.4693L18.555 29.4211C18.4701 29.2101 18.2645 29.0718 18.0358 29.0718H17.2959L17.0901 28.9695C16.8576 28.854 16.6013 28.7939 16.3415 28.7939H15.4698C15.3822 28.6084 15.3385 28.3886 15.3385 28.1687C15.3385 27.9534 15.3804 27.7798 15.4319 27.5671C15.5132 27.2309 15.6181 26.7969 15.6181 25.9458C15.6181 25.4869 15.5333 25.1964 15.4572 24.9353C15.395 24.7221 15.3385 24.5284 15.3385 24.2786C15.3385 24.1769 15.3947 23.9635 15.4659 23.693C15.5893 23.2244 15.7579 22.5842 15.7579 22.0557C15.7579 21.4877 15.7092 21.0487 15.6118 20.7387C16.1753 20.2422 16.457 19.1298 16.457 17.4015C16.457 17.1237 16.457 16.5679 15.6181 16.2901C15.1683 16.1411 15.0401 15.9921 14.9317 15.7147C15.1754 15.5202 15.3385 15.1663 15.3385 14.7618C15.3385 14.148 14.9629 13.6504 14.4996 13.6504C14.0363 13.6504 13.6607 14.148 13.6607 14.7618C13.6607 15.1663 13.8237 15.5202 14.0675 15.7147C13.9591 15.9921 13.8308 16.1411 13.381 16.2901C12.5422 16.5679 12.5422 17.1237 12.5422 17.4015C12.5422 19.0833 12.8089 20.1818 13.3424 20.6973C13.275 20.9913 13.2412 21.3746 13.2412 21.8473C13.2412 22.3758 13.4098 23.016 13.5332 23.4846C13.6045 23.7551 13.6607 23.9685 13.6607 24.0702C13.6607 24.32 13.6042 24.5137 13.542 24.7269C13.4658 24.988 13.381 25.2785 13.381 25.7374C13.381 26.5885 13.486 27.0225 13.5673 27.3587C13.6187 27.5714 13.6607 27.745 13.6607 27.9603C13.6607 28.2703 13.5737 28.5804 13.3996 28.7939H12.6586C12.3981 28.7939 12.1412 28.8542 11.9083 28.9699L11.7033 29.0718H10.9634C10.7347 29.0718 10.529 29.2101 10.4441 29.4211L9.61961 31.4693C9.6064 31.5022 9.59961 31.5372 9.59961 31.5725C9.59961 31.721 9.7168 31.8423 9.86428 31.85H0.5Z" fill="url(#paint0_linear)"/>
<defs>
<linearGradient id="paint0_linear" x1="14.5933" y1="35.6437" x2="35.8254" y2="17.5318" gradientUnits="userSpaceOnUse">
<stop stop-color="#AC7634"/>
<stop offset="1" stop-color="#DBA666"/>
</linearGradient>
</defs>
</svg>
