<svg width="167" height="36" viewBox="0 0 167 36" fill="none" xmlns="http://www.w3.org/2000/svg">
<path fill-rule="evenodd" clip-rule="evenodd" d="M0.478516 35.3949L15.9345 0.232422L29.0719 30.1199V0.682881H38.2303C42.0085 0.682881 45.3308 1.47079 48.0409 3.21965C49.4979 4.14568 50.5721 5.34867 51.2972 6.76771V0.682881L95.584 0.682967V9.3337H84.6234V13.0115H93.1319V21.7441H84.6234V26.7325H94.367L99.7541 0.682967H103.555L112.498 18.2589L112.865 19.0715L113.227 18.2674L121.998 0.682967H125.756L133.224 35.4242H123.977L121.164 22.3841L114.396 35.4242H111.329L104.493 22.1765L101.867 35.4242H75.4402V9.33361H68.1806V35.4241H58.9974V9.33361H52.1906C52.3771 10.2177 52.4677 11.1547 52.4677 12.135C52.4677 14.5326 51.896 16.7316 50.6638 18.6346C49.8981 19.8267 48.9086 20.8191 47.7328 21.6255L55.7286 35.4241H45.0298L38.9952 24.0889C38.7139 24.0969 38.4399 24.1034 38.1732 24.1083V35.4241H29.0719V35.3949H0.478516ZM15.0081 31.1001C15.0081 31.4424 14.912 31.7846 14.7199 32.0204H13.9018C13.6142 32.0204 13.3306 32.0869 13.0734 32.2147L12.8471 32.3272H12.0303C11.7778 32.3272 11.5508 32.4799 11.457 32.7128L10.5467 34.9741C10.5322 35.0103 10.5247 35.049 10.5247 35.088C10.5247 35.2574 10.6629 35.3948 10.8334 35.3948H21.0351C21.0744 35.3948 21.1133 35.3873 21.1497 35.3728C21.308 35.3099 21.385 35.1314 21.3217 34.9741L20.4115 32.7128C20.3177 32.4799 20.0907 32.3272 19.8382 32.3272H19.0214L18.7942 32.2143C18.5375 32.0868 18.2546 32.0204 17.9677 32.0204H17.0053C16.9087 31.8157 16.8604 31.5729 16.8604 31.3302C16.8604 31.0925 16.9067 30.9008 16.9635 30.666C17.0532 30.2948 17.1691 29.8157 17.1691 28.8761C17.1691 28.3695 17.0755 28.0488 16.9914 27.7605C16.9227 27.5251 16.8604 27.3113 16.8604 27.0355C16.8604 26.9233 16.9224 26.6877 17.0011 26.389C17.1373 25.8716 17.3234 25.1649 17.3234 24.5815C17.3234 23.9544 17.2697 23.4697 17.1622 23.1275C17.7842 22.5793 18.0952 21.3512 18.0952 19.4432C18.0952 19.1365 18.0952 18.5229 17.1691 18.2162C16.6725 18.0517 16.531 17.8872 16.4113 17.5809C16.6804 17.3663 16.8604 16.9755 16.8604 16.529C16.8604 15.8513 16.4457 15.3019 15.9342 15.3019C15.4227 15.3019 15.0081 15.8513 15.0081 16.529C15.0081 16.9755 15.1881 17.3663 15.4572 17.5809C15.3375 17.8872 15.1959 18.0517 14.6994 18.2162C13.7732 18.5229 13.7732 19.1365 13.7732 19.4432C13.7732 21.2998 14.0677 22.5127 14.6567 23.0817C14.5822 23.4063 14.545 23.8295 14.545 24.3514C14.545 24.9348 14.7311 25.6415 14.8674 26.1589C14.946 26.4576 15.0081 26.6932 15.0081 26.8055C15.0081 27.0812 14.9457 27.295 14.877 27.5304C14.7929 27.8187 14.6994 28.1394 14.6994 28.646C14.6994 29.5856 14.8152 30.0647 14.905 30.436C14.9618 30.6708 15.0081 30.8624 15.0081 31.1001ZM38.7627 15.7556H38.173V9.12886H38.5989C40.7659 9.12886 41.9686 9.5462 42.5853 10.0078C43.0758 10.375 43.4482 10.9548 43.4482 12.176C43.4482 13.2563 43.1266 14.1062 42.4937 14.8416L42.4909 14.845C42.1905 15.1953 41.2539 15.7556 38.7627 15.7556Z" fill="black"/>
<path fill-rule="evenodd" clip-rule="evenodd" d="M0.478516 35.3949L15.9345 0.232422L29.0719 30.1199V0.682881H38.2303C42.0085 0.682881 45.3308 1.47079 48.0409 3.21965C49.4979 4.14568 50.5721 5.34867 51.2972 6.76771V0.682881L95.584 0.682967V9.3337H84.6234V13.0115H93.1319V21.7441H84.6234V26.7325H94.367L99.7541 0.682967H103.555L112.498 18.2589L112.865 19.0715L113.227 18.2674L121.998 0.682967H125.756L133.224 35.4242H123.977L121.164 22.3841L114.396 35.4242H111.329L104.493 22.1765L101.867 35.4242H75.4402V9.33361H68.1806V35.4241H58.9974V9.33361H52.1906C52.3771 10.2177 52.4677 11.1547 52.4677 12.135C52.4677 14.5326 51.896 16.7316 50.6638 18.6346C49.8981 19.8267 48.9086 20.8191 47.7328 21.6255L55.7286 35.4241H45.0298L38.9952 24.0889C38.7139 24.0969 38.4399 24.1034 38.1732 24.1083V35.4241H29.0719V35.3949H0.478516ZM15.0081 31.1001C15.0081 31.4424 14.912 31.7846 14.7199 32.0204H13.9018C13.6142 32.0204 13.3306 32.0869 13.0734 32.2147L12.8471 32.3272H12.0303C11.7778 32.3272 11.5508 32.4799 11.457 32.7128L10.5467 34.9741C10.5322 35.0103 10.5247 35.049 10.5247 35.088C10.5247 35.2574 10.6629 35.3948 10.8334 35.3948H21.0351C21.0744 35.3948 21.1133 35.3873 21.1497 35.3728C21.308 35.3099 21.385 35.1314 21.3217 34.9741L20.4115 32.7128C20.3177 32.4799 20.0907 32.3272 19.8382 32.3272H19.0214L18.7942 32.2143C18.5375 32.0868 18.2546 32.0204 17.9677 32.0204H17.0053C16.9087 31.8157 16.8604 31.5729 16.8604 31.3302C16.8604 31.0925 16.9067 30.9008 16.9635 30.666C17.0532 30.2948 17.1691 29.8157 17.1691 28.8761C17.1691 28.3695 17.0755 28.0488 16.9914 27.7605C16.9227 27.5251 16.8604 27.3113 16.8604 27.0355C16.8604 26.9233 16.9224 26.6877 17.0011 26.389C17.1373 25.8716 17.3234 25.1649 17.3234 24.5815C17.3234 23.9544 17.2697 23.4697 17.1622 23.1275C17.7842 22.5793 18.0952 21.3512 18.0952 19.4432C18.0952 19.1365 18.0952 18.5229 17.1691 18.2162C16.6725 18.0517 16.531 17.8872 16.4113 17.5809C16.6804 17.3663 16.8604 16.9755 16.8604 16.529C16.8604 15.8513 16.4457 15.3019 15.9342 15.3019C15.4227 15.3019 15.0081 15.8513 15.0081 16.529C15.0081 16.9755 15.1881 17.3663 15.4572 17.5809C15.3375 17.8872 15.1959 18.0517 14.6994 18.2162C13.7732 18.5229 13.7732 19.1365 13.7732 19.4432C13.7732 21.2998 14.0677 22.5127 14.6567 23.0817C14.5822 23.4063 14.545 23.8295 14.545 24.3514C14.545 24.9348 14.7311 25.6415 14.8674 26.1589C14.946 26.4576 15.0081 26.6932 15.0081 26.8055C15.0081 27.0812 14.9457 27.295 14.877 27.5304C14.7929 27.8187 14.6994 28.1394 14.6994 28.646C14.6994 29.5856 14.8152 30.0647 14.905 30.436C14.9618 30.6708 15.0081 30.8624 15.0081 31.1001ZM38.7627 15.7556H38.173V9.12886H38.5989C40.7659 9.12886 41.9686 9.5462 42.5853 10.0078C43.0758 10.375 43.4482 10.9548 43.4482 12.176C43.4482 13.2563 43.1266 14.1062 42.4937 14.8416L42.4909 14.845C42.1905 15.1953 41.2539 15.7556 38.7627 15.7556Z" fill="url(#paint0_linear)"/>
<path d="M133.436 0.682967H142.66V35.4242H133.436V0.682967Z" fill="black"/>
<path d="M133.436 0.682967H142.66V35.4242H133.436V0.682967Z" fill="url(#paint1_linear)"/>
<path d="M143.782 31.1307L148.226 23.1652L150.386 25.12C150.713 25.4151 151.358 25.842 152.463 26.3713C153.442 26.8026 154.286 26.9783 155.016 26.9783C156.1 26.9783 156.741 26.7259 157.138 26.4247L157.151 26.4147L157.165 26.4049C157.47 26.1806 157.612 25.9475 157.612 25.4466C157.612 24.9515 157.49 24.6319 157.312 24.3847C156.998 23.9483 156.623 23.6001 156.176 23.3252L156.149 23.3086L156.123 23.2912C155.523 22.8992 154.606 22.3867 153.331 21.7488C151.783 20.9881 150.594 20.3563 149.88 19.8802L149.875 19.8772C146.596 17.6798 144.874 14.5062 144.874 10.5787C144.874 7.42459 145.951 4.71779 148.323 2.83104C150.527 1.04994 153.239 0.232422 156.285 0.232422C159.573 0.232422 162.497 1.18687 164.923 3.17414L166.451 4.42661L161.73 12.5322L159.601 10.2914C159.381 10.0591 158.962 9.75567 158.21 9.45459L158.172 9.43952L158.135 9.42315C157.516 9.15005 156.84 9.00603 156.081 9.00603C155.056 9.00603 154.544 9.2409 154.286 9.44613L154.277 9.45269C154.203 9.51094 154.016 9.6578 154.016 10.3329C154.016 10.6893 154.108 10.9751 154.305 11.255C154.621 11.6721 155.028 12.0581 155.549 12.4076C156.252 12.8584 157.221 13.4278 158.473 14.1203L158.476 14.1224C159.7 14.8021 160.673 15.3647 161.376 15.8033C162.172 16.2708 162.911 16.831 163.593 17.4774C164.598 18.3836 165.406 19.4582 166.018 20.6826C166.682 22.0093 167 23.4462 167 24.9551C167 27.1443 166.491 29.1597 165.357 30.8856C164.281 32.5664 162.777 33.8211 160.921 34.6474C159.129 35.4577 157.144 35.8338 155.016 35.8338C153.101 35.8338 151.214 35.4978 149.364 34.8395C147.626 34.2209 146.088 33.437 145.021 32.3696L143.782 31.1307Z" fill="black"/>
<path d="M143.782 31.1307L148.226 23.1652L150.386 25.12C150.713 25.4151 151.358 25.842 152.463 26.3713C153.442 26.8026 154.286 26.9783 155.016 26.9783C156.1 26.9783 156.741 26.7259 157.138 26.4247L157.151 26.4147L157.165 26.4049C157.47 26.1806 157.612 25.9475 157.612 25.4466C157.612 24.9515 157.49 24.6319 157.312 24.3847C156.998 23.9483 156.623 23.6001 156.176 23.3252L156.149 23.3086L156.123 23.2912C155.523 22.8992 154.606 22.3867 153.331 21.7488C151.783 20.9881 150.594 20.3563 149.88 19.8802L149.875 19.8772C146.596 17.6798 144.874 14.5062 144.874 10.5787C144.874 7.42459 145.951 4.71779 148.323 2.83104C150.527 1.04994 153.239 0.232422 156.285 0.232422C159.573 0.232422 162.497 1.18687 164.923 3.17414L166.451 4.42661L161.73 12.5322L159.601 10.2914C159.381 10.0591 158.962 9.75567 158.21 9.45459L158.172 9.43952L158.135 9.42315C157.516 9.15005 156.84 9.00603 156.081 9.00603C155.056 9.00603 154.544 9.2409 154.286 9.44613L154.277 9.45269C154.203 9.51094 154.016 9.6578 154.016 10.3329C154.016 10.6893 154.108 10.9751 154.305 11.255C154.621 11.6721 155.028 12.0581 155.549 12.4076C156.252 12.8584 157.221 13.4278 158.473 14.1203L158.476 14.1224C159.7 14.8021 160.673 15.3647 161.376 15.8033C162.172 16.2708 162.911 16.831 163.593 17.4774C164.598 18.3836 165.406 19.4582 166.018 20.6826C166.682 22.0093 167 23.4462 167 24.9551C167 27.1443 166.491 29.1597 165.357 30.8856C164.281 32.5664 162.777 33.8211 160.921 34.6474C159.129 35.4577 157.144 35.8338 155.016 35.8338C153.101 35.8338 151.214 35.4978 149.364 34.8395C147.626 34.2209 146.088 33.437 145.021 32.3696L143.782 31.1307Z" fill="url(#paint2_linear)"/>
<defs>
<linearGradient id="paint0_linear" x1="38.4722" y1="39.6159" x2="42.3636" y2="-3.03242" gradientUnits="userSpaceOnUse">
<stop stop-color="#AC7634"/>
<stop offset="1" stop-color="#DBA666"/>
</linearGradient>
<linearGradient id="paint1_linear" x1="38.4722" y1="39.6159" x2="42.3636" y2="-3.03242" gradientUnits="userSpaceOnUse">
<stop stop-color="#AC7634"/>
<stop offset="1" stop-color="#DBA666"/>
</linearGradient>
<linearGradient id="paint2_linear" x1="38.4722" y1="39.6159" x2="42.3636" y2="-3.03242" gradientUnits="userSpaceOnUse">
<stop stop-color="#AC7634"/>
<stop offset="1" stop-color="#DBA666"/>
</linearGradient>
</defs>
</svg>
