<svg width="24" height="24" viewBox="0 0 24 24" fill="none" xmlns="http://www.w3.org/2000/svg">
<path d="M16.5595 24H22.6753C23.4067 24 23.9998 23.4069 23.9998 22.6753V1.32461C23.9998 0.592925 23.4068 0 22.6753 0H1.32461C0.592925 0 0 0.592925 0 1.32461V22.6753C0 23.4068 0.592832 24 1.32461 24H12.8191V14.7076H9.69149V11.0855H12.8191V8.41428C12.8191 5.31444 14.7123 3.62646 17.4776 3.62646C18.8022 3.62646 19.9408 3.72508 20.2725 3.76922V7.00884L18.3545 7.00968C16.8507 7.00968 16.5595 7.72432 16.5595 8.773V11.0855H20.1462L19.6791 14.7076H16.5595V24Z" fill="white"/>
</svg>
