<svg width="24" height="24" viewBox="0 0 24 24" fill="none" xmlns="http://www.w3.org/2000/svg">
<path d="M12.601 1.32051e-06C15.3202 0.00183122 15.7548 0.0178535 16.9569 0.0749065C18.2324 0.131132 19.1047 0.337355 19.8689 0.63277C20.6662 0.932764 21.393 1.40638 21.9933 2.01589C22.6077 2.61606 23.0766 3.33803 23.3815 4.14442C23.6769 4.90411 23.8832 5.78083 23.9394 7.05608C23.9866 8.12964 23.9975 8.5897 23.9999 10.6326L24 12.8718C23.9973 15.3481 23.9809 15.7928 23.9301 16.9489C23.8738 18.2242 23.6674 19.0963 23.3721 19.8606C22.7484 21.4734 21.4729 22.7486 19.8596 23.3722C19.1 23.6676 18.2231 23.8739 16.9476 23.9301C15.7912 23.981 15.3465 23.9973 12.8697 24H11.1307C8.65389 23.9973 8.20904 23.981 7.05285 23.9301C5.77717 23.8739 4.90505 23.6676 4.14063 23.3722C3.34343 23.0722 2.61656 22.5986 2.01628 21.9891C1.40665 21.3889 0.933125 20.667 0.628312 19.8606C0.33284 19.1009 0.126395 18.2242 0.0701581 16.9489C0.0175496 15.7515 0.0018117 15.3173 0 12.5986L1.32051e-06 11.4064C0.00183157 8.68768 0.0178568 8.2532 0.0749208 7.05132C0.131157 5.77607 0.33742 4.90411 0.632891 4.13984C0.933125 3.34279 1.40665 2.61606 2.01628 2.01589C2.61656 1.40162 3.33866 0.932764 4.14539 0.628008C4.90505 0.332776 5.78194 0.126371 7.05743 0.0701446C8.25508 0.0175461 8.68936 0.00181135 11.4086 0L12.601 1.32051e-06ZM12.8693 2.18041H11.1603C8.72956 2.18311 8.30894 2.19953 7.16532 2.25032C5.99772 2.30197 5.35989 2.49885 4.93784 2.66295C4.41724 2.85507 3.94829 3.15982 3.55921 3.55835C3.15585 3.94296 2.85103 4.41639 2.65869 4.93689C2.49456 5.35886 2.29764 5.99182 2.24617 7.16395C2.19157 8.38442 2.17677 8.78381 2.17587 11.7106L2.17583 12.0118C2.17583 15.2142 2.18975 15.594 2.24617 16.8599C2.29764 18.0273 2.49456 18.665 2.65869 19.087C2.85103 19.6073 3.15585 20.0761 3.55445 20.4653C3.93895 20.8639 4.41266 21.1686 4.93307 21.3609C5.35512 21.525 5.9882 21.7219 7.16056 21.7734C8.34074 21.8261 8.75336 21.8417 11.4238 21.8435H12.5952C15.2652 21.8417 15.6739 21.8261 16.8584 21.7734C18.0261 21.7219 18.6638 21.525 19.0858 21.3609C20.1316 20.9576 20.9616 20.1278 21.365 19.0822C21.5291 18.6602 21.726 18.0273 21.7777 16.8551C21.8267 15.7526 21.8437 15.3258 21.8473 13.1182V10.9053C21.8437 8.69679 21.8267 8.26652 21.7777 7.16395C21.726 5.9964 21.5291 5.35886 21.365 4.93689C21.1727 4.41639 20.8678 3.94754 20.4692 3.55835C20.0847 3.15982 19.611 2.85507 19.0906 2.66295C18.6686 2.49885 18.0355 2.30197 16.8631 2.25032C15.7236 2.19953 15.3036 2.18311 12.8693 2.18041ZM12.0001 5.99997C15.3128 5.99997 18.0003 8.68742 18.0003 12.0001C18.0003 15.3128 15.3128 18.0003 12.0001 18.0003C8.68759 18.0003 5.99997 15.3128 5.99997 12.0001C5.99997 8.68742 8.68759 5.99997 12.0001 5.99997ZM12.0001 8.10797C9.85112 8.10797 8.10797 9.85094 8.10797 12.0001C8.10797 14.1493 9.85112 15.8923 12.0001 15.8923L11.9992 15.8919L12.1943 15.8875C14.189 15.7894 15.7894 14.189 15.8875 12.1943L15.8923 12.0001C15.8923 9.85094 14.1493 8.10797 12.0001 8.10797ZM18.4617 4.06146C19.2265 4.06146 19.8465 4.68128 19.8465 5.44611C19.8465 6.21076 19.2265 6.83076 18.4617 6.83076C17.6971 6.83076 17.0772 6.21076 17.0772 5.44611C17.0772 4.68128 17.6971 4.06146 18.4617 4.06146Z" fill="white"/>
</svg>
