<svg width="26" height="22" viewBox="0 0 26 22" fill="none" xmlns="http://www.w3.org/2000/svg">
<path d="M26 2.50142C25.0434 2.92608 24.0153 3.21208 22.9363 3.341C24.0381 2.68125 24.8842 1.63583 25.2817 0.39C24.2515 1.001 23.1097 1.44517 21.8942 1.68458C20.9224 0.647833 19.5347 0 18.0007 0C14.5568 0 12.0261 3.21317 12.8039 6.54875C8.372 6.32667 4.44167 4.20333 1.81025 0.976083C0.41275 3.3735 1.0855 6.50975 3.46017 8.09792C2.587 8.06975 1.76367 7.83033 1.04542 7.43058C0.986917 9.90167 2.75817 12.2135 5.3235 12.7281C4.57275 12.9317 3.7505 12.9794 2.91417 12.8191C3.59233 14.9381 5.56183 16.4797 7.8975 16.523C5.655 18.2812 2.82967 19.0667 0 18.733C2.36058 20.2464 5.16533 21.1293 8.177 21.1293C18.0808 21.1293 23.6762 12.7649 23.3382 5.26283C24.3804 4.50992 25.285 3.57067 26 2.50142Z" fill="white"/>
</svg>
