<svg width="12" height="14" viewBox="0 0 12 14" fill="none" xmlns="http://www.w3.org/2000/svg">
<path fill-rule="evenodd" clip-rule="evenodd" d="M6.00055 6.9997C7.86982 6.9997 9.38516 5.48436 9.38516 3.61508C9.38516 1.74581 7.86982 0.230469 6.00055 0.230469C4.13128 0.230469 2.61593 1.74581 2.61593 3.61508C2.61593 5.48436 4.13128 6.9997 6.00055 6.9997ZM0.631757 10.406C0.185119 10.8771 0.187833 11.5627 0.3931 12.1786L0.695102 13.0846C0.831216 13.4929 1.21336 13.7683 1.64379 13.7683H10.3561C10.7865 13.7683 11.1687 13.4929 11.3048 13.0846L11.6068 12.1786C11.8121 11.5627 11.8148 10.8771 11.3681 10.406C10.6653 9.66478 9.14374 8.69141 5.99995 8.69141C2.85615 8.69141 1.33464 9.66478 0.631757 10.406Z" fill="white"/>
</svg>
