<svg width="1710" height="365" viewBox="0 0 1710 365" fill="none" xmlns="http://www.w3.org/2000/svg">
<path fill-rule="evenodd" clip-rule="evenodd" d="M0 360.5L158.461 0L293.155 306.429V4.61302H387.052C425.787 4.61302 459.849 12.691 487.633 30.621C502.572 40.1151 513.585 52.4486 521.019 66.9972V4.61302H773.899V4.61917H977.403V93.31H865.03V131.016H952.263V220.547H865.03V271.69H964.925L1020.16 4.61917H1059.13L1150.81 184.815L1154.57 193.146L1158.29 184.902L1248.2 4.61917H1286.73L1363.3 360.801H1268.5L1239.66 227.108L1170.28 360.801H1138.83L1068.74 224.98L1041.82 360.801H770.88V93.3038H694.114V360.795H599.964V93.3038H530.178C532.09 102.368 533.018 111.975 533.018 122.025C533.018 146.606 527.157 169.152 514.525 188.661C506.674 200.883 496.529 211.058 484.474 219.326L566.451 360.795H456.762L394.893 244.581C392.009 244.664 389.2 244.73 386.465 244.78V360.795H293.155V360.5H0ZM148.968 316.467C148.968 319.976 147.983 323.485 146.013 325.902H137.626C134.678 325.902 131.77 326.584 129.133 327.894L126.813 329.047H118.438C115.85 329.047 113.522 330.613 112.561 333.001L103.228 356.185C103.079 356.556 103.002 356.953 103.002 357.353C103.002 359.09 104.419 360.498 106.167 360.498H210.759C211.162 360.498 211.561 360.421 211.935 360.273C213.558 359.628 214.347 357.797 213.698 356.185L204.365 333.001C203.404 330.613 201.077 329.047 198.488 329.047H190.114L187.785 327.89C185.153 326.583 182.252 325.902 179.311 325.902H169.445C168.454 323.803 167.958 321.315 167.958 318.826C167.958 316.389 168.433 314.424 169.015 312.017C169.936 308.211 171.123 303.299 171.123 293.666C171.123 288.472 170.164 285.184 169.302 282.228C168.598 279.815 167.958 277.623 167.958 274.795C167.958 273.644 168.594 271.229 169.401 268.167L169.401 268.167C170.798 262.862 172.706 255.617 172.706 249.635C172.706 243.206 172.155 238.237 171.053 234.729C177.43 229.108 180.618 216.517 180.618 196.956C180.618 193.811 180.618 187.521 171.123 184.376C166.033 182.689 164.581 181.003 163.354 177.863C166.113 175.662 167.958 171.656 167.958 167.078C167.958 160.13 163.707 154.498 158.463 154.498C153.219 154.498 148.968 160.13 148.968 167.078C148.968 171.656 150.813 175.662 153.572 177.863C152.345 181.003 150.894 182.689 145.803 184.376C136.308 187.521 136.308 193.811 136.308 196.956C136.308 215.991 139.327 228.425 145.365 234.259C144.602 237.587 144.22 241.926 144.22 247.276C144.22 253.258 146.129 260.504 147.525 265.808C148.332 268.87 148.968 271.286 148.968 272.437C148.968 275.264 148.328 277.456 147.624 279.869C146.762 282.825 145.803 286.113 145.803 291.307C145.803 300.94 146.991 305.852 147.911 309.658C148.493 312.065 148.968 314.03 148.968 316.467ZM392.513 159.15H386.467V91.2099H390.833C413.05 91.2099 425.381 95.4887 431.704 100.222C436.733 103.986 440.55 109.93 440.55 122.451C440.55 133.527 437.253 142.239 430.765 149.779L430.735 149.814C427.657 153.406 418.054 159.15 392.513 159.15ZM1365.48 4.61917H1460.05V360.801H1365.48V4.61917ZM1471.55 316.782L1517.11 235.116L1539.26 255.158C1542.6 258.184 1549.22 262.56 1560.55 267.986C1570.58 272.409 1579.24 274.21 1586.72 274.21C1597.84 274.21 1604.4 271.622 1608.48 268.534L1608.62 268.432L1608.75 268.331C1611.88 266.031 1613.34 263.642 1613.34 258.506C1613.34 253.43 1612.09 250.154 1610.26 247.619C1607.04 243.145 1603.2 239.575 1598.62 236.757L1598.34 236.586L1598.07 236.408C1591.92 232.389 1582.52 227.135 1569.45 220.595C1553.57 212.796 1541.38 206.319 1534.06 201.437L1534.02 201.406C1500.4 178.878 1482.75 146.341 1482.75 106.074C1482.75 73.737 1493.79 45.9858 1518.1 26.6421C1540.7 8.38158 1568.5 0 1599.74 0C1633.44 0 1663.43 9.78543 1688.29 30.1597L1703.96 43.0006L1655.56 126.102L1633.74 103.129C1631.47 100.747 1627.18 97.6362 1619.47 94.5494L1619.08 94.395L1618.7 94.2271C1612.35 91.4272 1605.42 89.9506 1597.64 89.9506C1587.13 89.9506 1581.89 92.3586 1579.23 94.4628L1579.15 94.53C1579.12 94.5566 1579.08 94.5841 1579.04 94.6131C1578.23 95.235 1576.56 96.5152 1576.56 103.129C1576.56 106.783 1577.41 110.138 1579.43 113.008C1582.67 117.284 1586.85 121.242 1592.19 124.825C1599.39 129.446 1609.33 135.284 1622.16 142.385L1622.2 142.406C1634.74 149.374 1644.72 155.142 1651.93 159.639C1660.09 164.432 1667.67 170.175 1674.66 176.802C1684.96 186.093 1693.25 197.111 1699.52 209.663C1706.32 223.265 1709.59 237.997 1709.59 253.467C1709.59 275.912 1704.37 296.574 1692.75 314.269C1681.71 331.502 1666.29 344.365 1647.27 352.836C1628.89 361.145 1608.55 365 1586.72 365C1567.09 365 1547.74 361.555 1528.78 354.805C1510.96 348.464 1495.19 340.427 1484.25 329.483L1471.55 316.782Z" fill="black" fill-opacity="0.4"/>
</svg>
