<svg width="39" height="24" viewBox="0 0 39 24" fill="none" xmlns="http://www.w3.org/2000/svg">
<path d="M24.603 2.59961H14.1211V21.3978H24.603V2.59961Z" fill="#CECECE"/>
<path d="M14.8368 11.9979C14.8368 8.16524 16.6372 4.76583 19.4045 2.56622C17.3707 0.966497 14.8035 0 12.0028 0C5.36792 0 0 5.36573 0 11.9979C0 18.6301 5.36792 23.9958 12.0028 23.9958C14.8035 23.9958 17.3707 23.0293 19.4045 21.4296C16.6372 19.2633 14.8368 15.8306 14.8368 11.9979Z" fill="#8B8B8C"/>
<path d="M38.8108 11.9979C38.8108 18.6301 33.4429 23.9958 26.808 23.9958C24.0073 23.9958 21.4401 23.0293 19.4062 21.4296C22.2069 19.23 23.974 15.8306 23.974 11.9979C23.974 8.16524 22.1736 4.76583 19.4062 2.56622C21.4401 0.966497 24.0073 0 26.808 0C33.4429 0 38.8108 5.39905 38.8108 11.9979Z" fill="#575758"/>
</svg>
