<svg width="112" height="28" viewBox="0 0 112 28" fill="none" xmlns="http://www.w3.org/2000/svg">
<path opacity="0.5" d="M41.9139 6.06445H35.7966C35.3783 6.06419 35.0219 6.36864 34.9568 6.78207L32.4827 22.4738C32.4597 22.6212 32.5023 22.7713 32.5993 22.8845C32.6963 22.9978 32.8381 23.0628 32.9872 23.0626H35.9076C36.3262 23.0628 36.6827 22.7579 36.7475 22.3441L37.4147 18.1118C37.4795 17.6983 37.8354 17.3935 38.2537 17.3933H40.1902C44.2198 17.3933 46.5454 15.4427 47.1527 11.5772C47.4264 9.88606 47.1643 8.55731 46.3727 7.62674C45.5033 6.6049 43.9613 6.06445 41.9139 6.06445ZM42.6196 11.7955C42.2851 13.9913 40.6079 13.9913 38.9863 13.9913H38.0632L38.7108 9.89054C38.75 9.64268 38.9635 9.46015 39.2144 9.46015H39.6375C40.7421 9.46015 41.7842 9.46015 42.3226 10.0901C42.6437 10.4659 42.7421 11.0242 42.6196 11.7955ZM60.1993 11.7248H57.2699C57.0191 11.7248 56.8055 11.9074 56.7663 12.1552L56.6367 12.9748L56.4318 12.6778C55.7976 11.7571 54.3835 11.4492 52.9721 11.4492C49.735 11.4492 46.9702 13.9018 46.4318 17.3423C46.1518 19.0585 46.5498 20.6995 47.523 21.8439C48.4157 22.8962 49.693 23.3346 51.2127 23.3346C53.8209 23.3346 55.2672 21.6569 55.2672 21.6569L55.1366 22.4712C55.1131 22.6185 55.1552 22.7688 55.2519 22.8824C55.3486 22.996 55.4902 23.0615 55.6393 23.0617H58.278C58.6967 23.0619 59.0531 22.757 59.1179 22.3432L60.7011 12.3136C60.7247 12.1666 60.6826 12.0166 60.5861 11.9033C60.4895 11.79 60.3481 11.7248 60.1993 11.7248ZM56.1161 17.4282C55.8334 19.1023 54.5052 20.2262 52.811 20.2262C51.9604 20.2262 51.2806 19.9533 50.8441 19.4361C50.4112 18.9225 50.2466 18.1914 50.3844 17.3772C50.6482 15.7174 51.9989 14.5568 53.667 14.5568C54.4989 14.5568 55.1751 14.8333 55.6205 15.355C56.0669 15.882 56.244 16.6175 56.1161 17.4282ZM75.8004 11.7248H72.8568C72.5749 11.7253 72.3115 11.8649 72.1528 12.098L68.0929 18.0805L66.3719 12.3315C66.2635 11.9715 65.9321 11.725 65.5562 11.7248H62.6635C62.4988 11.7244 62.344 11.8036 62.2479 11.9375C62.1519 12.0714 62.1264 12.2435 62.1796 12.3995L65.422 21.9182L62.3737 26.223C62.2633 26.3786 62.2489 26.5828 62.3365 26.7524C62.424 26.9219 62.5989 27.0283 62.7896 27.0283H65.7297C66.0084 27.0287 66.2694 26.8922 66.4283 26.6632L76.219 12.5257C76.3272 12.3698 76.3399 12.1667 76.252 11.9985C76.1641 11.8304 75.9901 11.7248 75.8004 11.7248Z" fill="white"/>
<path opacity="0.3" d="M85.5698 6.06535H79.4545C79.0367 6.06552 78.681 6.3693 78.6159 6.78162L76.143 22.4441C76.1197 22.591 76.162 22.7406 76.2586 22.8537C76.3553 22.9667 76.4966 23.0318 76.6454 23.0318H79.7835C80.076 23.0314 80.3247 22.8185 80.37 22.5299L81.0719 18.0902C81.1366 17.6775 81.4923 17.3733 81.9105 17.373H83.8452C87.8738 17.373 90.1974 15.4261 90.8054 11.5678C91.0798 9.87983 90.8161 8.55356 90.0249 7.62472C89.1567 6.60479 87.6163 6.06535 85.5698 6.06535ZM86.2752 11.7857C85.9417 13.9774 84.2654 13.9774 82.6436 13.9774H81.7218L82.37 9.8843C82.4084 9.63685 82.6218 9.4544 82.8725 9.45471H83.2954C84.3986 9.45471 85.4411 9.45471 85.9793 10.0835C86.3003 10.4586 86.3977 11.0159 86.2752 11.7857ZM103.846 11.7152H100.92C100.669 11.7145 100.455 11.8971 100.417 12.1448L100.288 12.9629L100.082 12.6663C99.4481 11.7473 98.0355 11.4401 96.6247 11.4401C93.3892 11.4401 90.6266 13.8881 90.0883 17.3221C89.8094 19.0351 90.2055 20.6731 91.1782 21.8154C92.0722 22.8657 93.3471 23.3033 94.8661 23.3033C97.4732 23.3033 98.9188 21.6287 98.9188 21.6287L98.7883 22.4415C98.7647 22.5888 98.807 22.7391 98.9041 22.8526C99.0012 22.966 99.1432 23.0312 99.2926 23.0309H101.929C102.347 23.0307 102.703 22.7264 102.768 22.3137L104.351 12.3028C104.374 12.1557 104.331 12.0059 104.234 11.8929C104.137 11.7799 103.995 11.715 103.846 11.7152ZM99.7646 17.4079C99.4839 19.0789 98.1544 20.2006 96.4611 20.2006C95.6126 20.2006 94.9314 19.9282 94.4951 19.412C94.0624 18.8994 93.8997 18.1697 94.0355 17.357C94.3011 15.7002 95.6493 14.5419 97.3167 14.5419C98.1482 14.5419 98.8241 14.8178 99.2693 15.3385C99.7172 15.8646 99.8942 16.5987 99.7646 17.4079ZM107.298 6.49493L104.788 22.4441C104.765 22.591 104.807 22.7406 104.904 22.8537C105.001 22.9667 105.142 23.0318 105.291 23.0318H107.814C108.233 23.0318 108.589 22.7281 108.653 22.3146L111.128 6.65301C111.151 6.5061 111.109 6.35637 111.012 6.24319C110.916 6.13002 110.774 6.06472 110.625 6.06445H107.8C107.55 6.06534 107.337 6.24771 107.298 6.49493Z" fill="#EAEAEA"/>
<path opacity="0.3" d="M21.2067 6.84375C21.1817 7.00357 21.1531 7.16695 21.1209 7.33481C20.0155 13.0052 16.2337 14.964 11.4037 14.964H8.94449C8.35381 14.964 7.85606 15.3926 7.76402 15.9747L6.50491 23.953L6.14836 26.2145C6.11961 26.3961 6.17184 26.5811 6.2913 26.7209C6.41075 26.8607 6.58546 26.9413 6.76942 26.9413H11.1312C11.6477 26.9413 12.0864 26.5663 12.1678 26.0574L12.2107 25.836L13.0319 20.629L13.0846 20.3433C13.165 19.8326 13.6047 19.4576 14.1212 19.4576H14.7736C18.9995 19.4576 22.3077 17.7434 23.2745 12.7828C23.6785 10.7106 23.4694 8.98029 22.4006 7.76336C22.0618 7.38691 21.6573 7.07529 21.2067 6.84375Z" fill="#EAEAEA"/>
<path d="M20.0613 6.37225C19.7087 6.27051 19.3501 6.1911 18.9875 6.1345C18.271 6.02465 17.5469 5.97194 16.8221 5.97688H10.2598C9.74373 5.97656 9.30449 6.35154 9.22524 6.86024L7.82923 15.6814L7.78906 15.9387C7.87893 15.3585 8.37966 14.9304 8.96818 14.9307H11.4246C16.249 14.9307 20.0265 12.9761 21.1306 7.32151C21.1636 7.1541 21.1913 6.99114 21.2163 6.83174C20.925 6.67932 20.6213 6.55153 20.3085 6.44973C20.2266 6.42258 20.1441 6.39676 20.0613 6.37225Z" fill="#CECECE"/>
<path opacity="0.5" d="M9.18315 6.88571C9.26178 6.37456 9.70176 5.99779 10.2182 5.9994H16.7837C17.5615 5.9994 18.2876 6.05037 18.9502 6.1577C19.3986 6.22828 19.8408 6.33383 20.2728 6.47341C20.5987 6.58163 20.9015 6.70952 21.181 6.85709C21.5096 4.75802 21.1783 3.32882 20.045 2.03468C18.7957 0.609956 16.5408 0 13.6554 0H5.27883C4.68943 0 4.18666 0.429295 4.09557 1.01331L0.606511 23.1622C0.573622 23.3704 0.633293 23.5825 0.769826 23.7428C0.906359 23.9031 1.10609 23.9955 1.31647 23.9958H6.48799L7.78646 15.7453L9.18315 6.88571Z" fill="white"/>
</svg>
