<svg width="61" height="20" viewBox="0 0 61 20" fill="none" xmlns="http://www.w3.org/2000/svg">
<path opacity="0.3" d="M26.4519 18.8829H21.6562L24.6558 0.335938H29.4512L26.4519 18.8829Z" fill="white"/>
<path opacity="0.3" d="M43.8349 0.789618C42.889 0.414346 41.3887 0 39.5336 0C34.7977 0 31.4627 2.52542 31.4423 6.136C31.4029 8.79988 33.83 10.2795 35.6453 11.1677C37.5007 12.0753 38.1313 12.6677 38.1313 13.4767C38.1125 14.7193 36.6321 15.292 35.2514 15.292C33.3367 15.292 32.3108 14.9967 30.7518 14.3054L30.1203 14.0091L29.4492 18.1725C30.574 18.6849 32.6462 19.1397 34.7977 19.1596C39.8296 19.1596 43.1056 16.6732 43.1444 12.8256C43.1636 10.7143 41.882 9.09648 39.119 7.7745C37.4416 6.92588 36.4144 6.35366 36.4144 5.48537C36.4341 4.69601 37.2833 3.88751 39.1767 3.88751C40.7357 3.84791 41.8812 4.22266 42.749 4.59767L43.1827 4.79462L43.8349 0.789618Z" fill="white"/>
<path opacity="0.3" d="M50.2127 12.3124C50.6076 11.2469 52.1273 7.12309 52.1273 7.12309C52.1074 7.16269 52.5215 6.03792 52.7583 5.34743L53.0934 6.94555C53.0934 6.94555 54.0016 11.3851 54.1988 12.3124C53.4493 12.3124 51.1599 12.3124 50.2127 12.3124ZM56.1323 0.335938H52.4229C51.2789 0.335938 50.4099 0.671086 49.9163 1.87479L42.793 18.8827H47.8249C47.8249 18.8827 48.6533 16.5935 48.8314 16.1005C49.3834 16.1005 54.2785 16.1005 54.9887 16.1005C55.1263 16.7517 55.5609 18.8827 55.5609 18.8827H60.0012L56.1323 0.335938Z" fill="white"/>
<path opacity="0.3" d="M17.6526 0.335938L12.956 12.9832L12.4428 10.4182C11.5745 7.4585 8.85139 4.24286 5.8125 2.64395L10.1144 18.8633H15.1856L22.7236 0.335938H17.6526Z" fill="white"/>
<path d="M7.7947 0.705078H0.0789356L0 1.07983C6.01878 2.61894 10.0049 6.32891 11.6426 10.7881L9.96529 2.26412C9.68915 1.07956 8.84053 0.744153 7.7947 0.705078Z" fill="#C0C0C0"/>
</svg>
